<?xml version="1.0" standalone="no"?>
<!DOCTYPE svg PUBLIC "-//W3C//DTD SVG 20010904//EN"
 "http://www.w3.org/TR/2001/REC-SVG-20010904/DTD/svg10.dtd">
<svg version="1.0" xmlns="http://www.w3.org/2000/svg"
 width="640.000000pt" height="640.000000pt" viewBox="0 0 640.000000 640.000000"
 preserveAspectRatio="xMidYMid meet">
<metadata>
Created by potrace 1.16, written by Peter Selinger 2001-2019
</metadata>
<g transform="translate(0.000000,640.000000) scale(0.100000,-0.100000)"
fill="#000000" stroke="none">
<path d="M2890 6103 c-580 -73 -1037 -295 -1422 -691 -433 -446 -658 -996
-658 -1611 0 -92 7 -218 15 -280 93 -703 491 -1306 1109 -1682 422 -255 946
-371 1428 -314 459 54 836 214 1213 515 420 336 707 825 804 1370 14 78 34
295 29 310 -3 10 -129 12 -611 11 l-607 -2 0 590 0 590 186 3 186 3 24 28 c36
42 34 109 -5 148 l-29 29 -556 0 -556 0 -29 -27 c-46 -43 -46 -111 0 -154 l31
-29 179 0 179 0 0 -590 0 -590 -735 0 -735 0 0 590 0 590 179 0 c176 0 180 0
209 25 36 30 46 75 28 119 -29 68 -7 66 -596 66 l-532 0 -29 -29 c-45 -45 -38
-120 15 -163 18 -15 44 -18 179 -18 l157 0 0 -1310 0 -1310 -143 0 -143 0 -65
68 c-36 37 -85 92 -110 122 -24 30 -46 57 -50 60 -23 20 -161 247 -209 345
-105 214 -163 396 -195 611 -91 613 82 1208 491 1683 296 344 668 574 1101
680 200 49 262 56 503 55 246 0 348 -13 562 -74 498 -140 916 -448 1201 -885
61 -94 147 -254 181 -337 l15 -38 -90 0 -89 0 0 -85 0 -85 216 0 216 0 -7 33
c-30 133 -156 417 -260 582 -313 498 -805 862 -1359 1010 -201 53 -314 67
-556 70 -124 2 -241 1 -260 -2z m908 -3200 l-3 -608 -182 -5 c-174 -5 -183 -6
-207 -29 -48 -45 -42 -131 12 -168 25 -17 61 -18 447 -23 l420 -5 -59 -38
c-156 -101 -405 -207 -605 -257 -208 -52 -239 -55 -526 -54 -265 0 -273 1
-410 31 -77 18 -187 48 -245 68 -126 43 -326 138 -430 203 l-75 47 375 5 c404
5 407 6 435 60 25 49 19 88 -19 126 l-34 34 -181 0 -181 0 0 610 0 610 735 0
735 0 -2 -607z m1399 590 c-3 -10 -8 -40 -12 -68 -25 -190 -137 -486 -260
-690 -63 -104 -196 -281 -283 -374 l-68 -73 -184 1 c-101 1 -187 4 -192 7 -4
3 -8 277 -8 610 l0 604 506 0 c476 0 505 -1 501 -17z"/>
<path d="M830 1106 c0 -17 8 -27 29 -36 22 -9 32 -23 45 -63 8 -29 44 -144 79
-257 35 -113 77 -247 92 -298 l29 -92 81 0 81 0 21 68 c12 37 36 114 53 172
29 95 47 150 121 384 17 53 28 72 50 85 20 11 29 23 27 36 -3 19 -11 20 -118
20 -110 0 -115 -1 -118 -21 -2 -16 4 -24 27 -32 17 -6 31 -18 31 -27 0 -8 -30
-115 -66 -238 -37 -122 -69 -232 -72 -245 -2 -13 -9 -21 -14 -20 -13 5 -136
393 -154 485 -5 28 -3 33 26 48 21 11 30 21 26 31 -3 9 -6 18 -6 20 0 2 -61 4
-135 4 l-135 0 0 -24z"/>
<path d="M1926 1122 c-3 -5 -54 -150 -114 -323 -125 -358 -128 -367 -154 -374
-12 -4 -18 -16 -18 -36 l0 -29 115 0 115 0 0 29 c0 23 -6 30 -25 35 -37 9 -40
27 -15 101 l22 65 133 0 133 0 22 -65 c24 -73 22 -91 -15 -105 -26 -10 -31
-25 -17 -48 7 -9 41 -12 138 -10 116 3 129 5 132 21 2 12 -8 29 -27 45 -23 20
-40 52 -62 117 -17 50 -67 194 -111 320 -44 127 -82 238 -85 248 -4 14 -18 17
-84 17 -43 0 -80 -4 -83 -8z m112 -280 c23 -70 42 -135 42 -145 0 -15 -12 -17
-95 -17 -52 0 -95 3 -95 7 0 18 92 283 99 283 3 0 26 -58 49 -128z"/>
<path d="M2617 1110 c-4 -14 1 -24 16 -32 12 -6 25 -16 29 -22 4 -6 8 -145 8
-308 0 -255 -2 -299 -15 -310 -39 -32 -43 -39 -38 -58 5 -18 13 -20 109 -20
l104 0 0 28 c0 21 -7 32 -25 40 l-25 12 0 277 c0 165 4 273 9 268 5 -6 28 -71
51 -145 23 -74 66 -213 96 -308 l55 -172 50 0 c59 0 42 -38 155 333 48 155 91
286 96 292 5 5 7 -110 6 -270 l-3 -280 -23 -10 c-16 -7 -22 -17 -20 -35 3 -25
3 -25 121 -28 l117 -3 0 25 c0 14 -10 30 -25 40 l-25 16 0 310 0 310 25 12
c18 8 25 18 23 32 -3 20 -10 21 -135 24 -73 1 -133 0 -133 -2 0 -3 -20 -72
-46 -153 -25 -82 -57 -186 -71 -233 -27 -90 -37 -108 -47 -91 -4 6 -38 115
-75 243 l-68 233 -145 3 c-139 2 -146 2 -151 -18z"/>
<path d="M3770 1107 c0 -16 9 -28 25 -35 l25 -12 -2 -312 -3 -313 -22 -10
c-16 -7 -23 -18 -23 -37 l0 -28 269 0 c305 0 281 -8 281 91 0 53 -2 59 -21 59
-12 0 -34 -11 -51 -25 -28 -24 -36 -25 -154 -25 l-124 0 0 125 0 125 80 0 c67
0 83 -3 100 -20 11 -11 31 -20 45 -20 25 0 25 1 25 90 0 85 -1 90 -21 90 -12
0 -32 -11 -45 -25 -21 -23 -31 -25 -104 -25 l-81 0 3 118 3 117 65 3 c95 5
168 -6 191 -29 37 -37 60 -22 65 45 7 81 24 76 -267 76 l-259 0 0 -23z"/>
<path d="M4580 1107 c0 -16 8 -28 25 -35 l25 -12 -2 -312 -3 -313 -23 -10
c-16 -7 -22 -17 -20 -35 3 -25 3 -25 126 -28 l122 -3 0 25 c0 14 -10 30 -25
40 -24 16 -25 20 -25 132 l0 116 56 -4 c68 -6 76 -14 144 -137 28 -52 63 -111
76 -132 l24 -39 90 0 c89 0 90 0 90 24 0 17 -10 31 -33 45 -18 11 -48 45 -67
76 -19 31 -55 88 -79 126 -24 39 -42 71 -40 73 2 1 21 13 42 25 59 36 89 89
94 169 4 60 2 73 -24 122 -23 43 -39 59 -78 80 -48 24 -56 25 -272 28 l-223 3
0 -24z m394 -92 c29 -19 56 -72 56 -109 0 -44 -27 -94 -62 -116 -26 -15 -50
-20 -110 -20 l-78 0 0 136 0 137 85 -6 c51 -4 94 -12 109 -22z"/>
</g>
</svg>
